<svg xmlns="http://www.w3.org/2000/svg" xmlns:xlink="http://www.w3.org/1999/xlink" id="Capa_1" x="0px" y="0px" viewBox="0 0 1125 310" style="enable-background:new 0 0 1125 310;" xml:space="preserve"><style type="text/css">	.st0{fill:#005092;}	.st1{fill:#009487;}</style><g>	<g>		<path class="st0" d="M37.2,210.1c3,0.4,6.1,0.7,9.2,0.7h0.1c39.2,0,83.9-34.1,104.7-66.9c20.5-34.5,25.4-75.5,14.4-118.8    c-1.8-10.2-8.3-14.8-13.7-14.8c-2,0-3.6,0.6-4.6,1.7c-3.7,4.9-5.4,8-7.7,12.5c-4.1,6.2-4,12.9,0.4,21.1c7.2,12.6,20,65.7,3,93.1    c-18.6,30.7-41.8,45.7-71,45.7c-6.6,0-12.6-0.7-18.1-1.4c-0.7-0.2-1.6-0.3-2.5-0.5c-1.7-0.4-3.8-0.7-5.9-0.7    c-4.8,0-8.4,2-10.9,6.2c-0.3,0.5-0.6,1-1,1.5c-1.9,2.9-4.5,6.9-4.9,10.3c-0.5,3-0.1,5.5,1.3,7.2C31.3,208.9,33.8,209.9,37.2,210.1    "></path>		<path class="st1" d="M147.6,160.4l-1-0.7c-41.9,47.7-91.5,65.4-112.8,65.4h-1.7c-0.4-0.2-0.8-0.2-1.1-0.2c-8.5,0-14.2,3-17.9,9    c-2.7,3.8-4.1,6.6-6.2,11l-0.8,1.6c-1.3,3.1-1.3,5.7,0,7.9c1.7,2.6,5.4,4.2,10.1,4.2c2.8,0,5.7-0.5,8.9-1.4    C65.6,245.9,105.3,229.9,147.6,160.4"></path>		<path class="st1" d="M113.3,85.8c19.3,23.1,18.1,54.2,16.6,66.5l-0.4,2.7l1.4-2.4c22.8-39.3,12.1-72.4-0.9-93.2    c-3.3-5.9-7.8-7.1-13-3.5c-2.7,1.9-5.5,6.5-7.4,9.5c-0.4,0.6-0.7,1.2-1,1.7c-5.1,8.3,0.3,14.1,3.6,17.4    C112.6,85.1,113,85.5,113.3,85.8"></path>		<path class="st0" d="M144,228.9c-39.8,0.5-77.3,17.7-107.9,49.9c-6.8,5.9-7.9,12.7-6.6,17.1c0.8,2.9,2.7,5,5,5.4    c5.5,0.6,9.4,0.4,14.6,0.1l0.3,0c7.3,0,12.9-3.6,17.4-11.3c6.9-12.9,44.9-51.5,76.9-51.5h1.2c60.1,0,75.9,35.8,83.5,53    c0.3,0.6,0.6,1.5,1,2.3c1.7,4.6,4.4,11.6,13.5,11.6c0.5,0,1,0,1.7,0h2.8c2.5,0,6.1-0.1,8.6-1.2c2.8-1.2,4.6-2.8,5.3-5    c0.7-2.2,0.4-4.8-1.3-7.8C243.5,253.5,187,229.4,144,228.9"></path>		<path class="st1" d="M306,277.2c-30.6-28.4-64.8-54-145-54h-1.2l-0.1,1.1c67.6,12,107,48.2,115.4,63.7c4.3,8,9.9,11.6,17.5,11.6    c1.4,0.2,2.7,0.2,3.9,0.2c2.5,0,4.8-0.2,7.7-0.5c0.9-0.1,1.8-0.3,2.8-0.3c3.6-0.5,6.1-2.3,6.9-5.1    C315.4,289.3,312.4,282.9,306,277.2"></path>		<path class="st1" d="M129.5,247.4c-20,7.7-35.5,22.6-46,43.8c-1.7,3-2.1,5.8-1.4,8c0.7,2.1,2.5,3.8,5.3,5    c2.7,1.2,7.1,1.3,10.1,1.3h2.2h1.6c9.5,0,11.5-7.5,12.7-12c0.2-0.7,0.3-1.2,0.5-1.6c9.4-28.9,36.4-44,47.5-49.3l2.6-1.1l-2.8,0.1    C150,241.7,139.2,243.7,129.5,247.4"></path>		<path class="st0" d="M338.7,249.7c-2.3-5.5-4-8.4-6.8-13c-3.4-6.7-9.3-9.9-18.4-10.3c-14.6,0-66.8-15.5-81.7-43.9    c-29-53.6-5-84.8,6.6-99.9c0.4-0.6,0.9-1.2,1.5-1.8c3.2-3.8,8.1-9.4,3.8-17.6c-0.2-0.5-0.5-1.2-0.9-1.8c-1.6-3-3.7-7-6.3-9.2    c-4.9-3.9-9.4-3.1-13.2,2.5c-25.6,32.5-20,94,0,132.3c19.3,35,52.1,59.9,94.9,71.9c2.7,1,5.3,1.5,7.9,1.5c4.8,0,9-1.9,11.3-5.1    C338.8,253.5,339.3,251.4,338.7,249.7"></path>		<path class="st1" d="M212,175.2c-21.6-65.4-8.6-117.5,1.2-132.4c4.7-7.6,5.4-14.3,1.8-20.9c-1.7-4-3.3-6.5-5.6-10    c-0.5-0.8-1.1-1.5-1.8-2.5c-1.7-2.5-4-3.8-6.4-3.8c-5.2,0-10.1,5.9-12.2,15.2c-10.5,40.9-16.7,83.4,21.9,155.1L212,175.2z"></path>		<path class="st1" d="M224.5,162.6l1.4,2.5c21.4,38,53.6,46.1,76.8,46.1c1.4,0,2.7-0.2,4.1-0.2c3.4,0,6-0.8,7.6-2.6    c1.4-1.6,2-4,1.7-7c-0.3-3.3-2.8-8-4.6-11.1c-0.3-0.7-0.6-1.3-0.9-1.8c-2.3-4.4-5.7-6.6-10.3-6.6c-2.3,0-4.6,0.5-6.3,0.9    c-0.6,0.1-1.2,0.3-1.7,0.4c-3.7,0.7-7.5,1-11.4,1c-25.1,0-46.2-13.9-54.2-19.8L224.5,162.6z"></path>	</g>	<g>		<g>			<path class="st0" d="M511.8,288.8v-1.4l-0.1-45c0-2.9,0-6,1-8.2l0-1.3l-29.8,0v1.4l0.3,0.1c8.3,3.5,8.3,13.1,8.3,21.6l0,27.8     c-7.9,2.4-16.7,3.7-25.8,3.7c-29.9,0-53.4-24.1-53.4-54.9c0-15.1,5.1-27.9,14.7-37.2c9.2-8.9,22.2-13.8,36.7-13.8     c7,0,24.2,1.1,33.1,11.5l0.2,0.2h1.3l0-23.4l-0.4-0.1c-10.3-2.3-20-3.3-29.8-3.3c-22.8,0.1-42.2,6.4-56.3,18.6     c-14.4,12.4-22,29.8-21.9,50.3c0.1,40.8,30.3,67.1,77,67.1h0.2c15.6,0,31.3-3.1,45.2-5.9l0.6-0.1l-0.2-0.6     C511.8,293.9,511.8,291.3,511.8,288.8"></path>			<path class="st0" d="M637.9,273.1c-0.4-0.9-0.7-1.8-1.1-2.7l-39.4-100.7l-30.6,0.1v1.4l0.3,0.1c2.4,0.8,4,2,4.8,3.7     c1.7,3.4-0.2,8.3-1.9,13l-31.7,82.6c-0.3,1-0.7,1.8-1,2.8c-3.7,10.1-7.2,19.7-17.1,24.8l-0.2,0.2v1.4l35.7,0V298l-0.3-0.1     c-8.4-3.3-7.6-8.2-3.5-19.5l9.7-27.3l46.9,0l10,27.3l0.9,2.3c4.4,11.6,5.1,13.5-3.2,17.3l-0.3,0.2v1.4l39.7,0V298l-0.3-0.2     C645.5,292.8,641.8,283.2,637.9,273.1 M602.5,235.6h-35.7l17.9-47.4L602.5,235.6z"></path>			<path class="st0" d="M751.4,272.4c-9.8,8.6-20.9,12.6-33.1,11.9l-25.2-1.7l-0.1-84.9c0-0.9,0-1.9,0-2.9c-0.2-8.7-0.3-20.5,8-23.6     l0.3-0.2v-1.3h-37v1.3l0.3,0.2c8.5,3.3,8.3,15.3,8.2,24c0,0.9,0,1.7,0,2.6l0,73.8c0,0.7,0,1.5,0.1,2.2c0.2,8.9,0.3,21-8.1,24.2     l-0.3,0.1v1.4h78.3l10.1-27.1h-1.4L751.4,272.4z"></path>			<path class="st0" d="M845,272.7c-8.1,7.4-19.2,11.7-30.4,11.7c-1.4,0-2.7-0.1-4.1-0.2l-23.5-2.3l-0.1-45.4h14.6     c4.9,0,12.4,0,15.2,5.2l0.1,0.3h1.3l0-21.7h-1.1l-0.2,0c-2.2,1.1-5.2,1.1-8.1,1.1H787l-0.1-35.5c6-1.2,12.5-1.3,18.7-1.3     c8.2,0,16.1,0.6,21.9,7.6l0.2,0.2h1.2l-0.1-23.8h-1.1l-0.1,0.1c-1.5,0.8-3.3,0.9-5.1,0.9h-1.7c-0.6,0-1.3,0-1.9,0l-60.8,0.1v1.4     l0.3,0.1c8.5,3.3,8.4,15.3,8.3,24.1c0,0.9,0,1.7,0,2.5l0.1,73.8c0,0.8,0,1.7,0,2.6c0.1,8.8,0.2,20.7-8.2,23.8l-0.3,0.1v1.5     l79-0.1h0.4l8.8-26.7h-1.5L845,272.7z"></path>			<path class="st0" d="M946.1,170.6l0.2,0.1c9.6,5.6,9.6,12.9,9.6,23.7l0.1,73.3l-68.2-89.2l-2.7-4c-1.3-1.5-2-2.4-2.7-4.5v-0.6     l-28.5,0v1.4l0.2,0.1c9.6,5.7,9.6,13.4,9.6,24.2l0.1,78.2c0.1,10.7,0.1,18.5-9.7,24.4l-0.2,0.2v1.4l34.3-0.1v-1.4l-0.2-0.1     c-9.6-5.8-9.6-13.4-9.6-23.9l-0.1-74.8l63.9,83.9c8,10.8,13.8,17.6,27.8,22.5l0.6,0.2L970.5,195c0-10.8,0-18.6,9.5-24.3l0.2-0.1     v-1.2h-34.1V170.6z"></path>			<path class="st0" d="M1055.4,165.8h-1.1c-17.8-0.2-34.6,6.7-47.1,19.3c-12.8,12.9-20,30.9-19.8,49.3     c0.4,38.6,28.7,67.6,65.9,67.6h0.8c17.6-0.2,34.1-7.3,46.4-20.2c12.5-13.1,19.4-30.9,19.1-50     C1119.2,194.9,1091,165.8,1055.4,165.8 M1098.2,236.1c0.2,15.6-4.8,29.4-13.8,38.7c-7.7,7.9-18,12.1-29.7,12.2h-0.5     c-27.7,0-45.2-28.3-45.4-54.5c-0.3-30.5,17.6-51.3,44.5-51.6h0.5C1082.2,180.9,1097.9,209.4,1098.2,236.1"></path>		</g>		<g>			<path class="st0" d="M397.8,21.9c-3.6,2.1-6.1,4.7-7.7,7.9l2.6-18.4h87.2l2.6,18.4c-1.6-3.2-4.2-5.8-7.7-7.9     c-3.6-2.1-8-3.1-13.4-3.1h-18.4v102.1c0,4.9,0.6,8.6,1.8,11.2c1.2,2.6,2.6,4.3,4,5.2c1.5,0.9,2.2,1.1,2.2,0.7h-29.3     c0,0.4,0.7,0.1,2.2-0.7c1.5-0.9,2.8-2.5,4-5.1c1.2-2.5,1.7-6.3,1.7-11.3V18.7h-18.4C405.9,18.7,401.4,19.8,397.8,21.9z"></path>			<path class="st0" d="M599.3,94c0,9.7-1.8,18-5.5,24.9c-3.7,6.9-8.9,12.2-15.6,15.8c-6.7,3.6-14.4,5.4-23.3,5.4     c-14.6,0-25.9-4-33.9-12.1c-8-8.1-12-19.3-12-33.7V28.5c0-4.9-0.6-8.6-1.7-11.1c-1.2-2.5-2.5-4.2-3.9-5.1     c-1.4-0.9-2.1-1.2-2.1-0.9h28.7c0-0.2-0.7,0.1-2.1,0.9c-1.4,0.9-2.7,2.5-3.9,5c-1.2,2.5-1.7,6-1.7,10.7v66.4     c0,11.9,2.9,21.1,8.6,27.6c5.7,6.5,14.1,9.8,25.1,9.8c10.2,0,18.2-3.1,24.1-9.3c5.9-6.2,8.8-15.4,8.8-27.5V28.5     c0-4.9-0.6-8.6-1.8-11.1c-1.2-2.5-2.6-4.2-4-5.1c-1.5-0.9-2.2-1.2-2.2-0.9h26.5c0-0.2-0.7,0.1-2.2,0.9c-1.5,0.9-2.8,2.5-4,5.1     c-1.2,2.5-1.8,6.2-1.8,11.1V94z"></path>			<path class="st0" d="M753.6,64.7c-3.4,5.6-8.2,10-14.4,13.2c-6.3,3.2-13.6,4.8-22.1,4.8c-5.2,0-10.7-0.6-16.6-1.7v40.1     c0,4.8,0.6,8.4,1.8,10.9c1.2,2.5,2.6,4.2,4,5.1c1.5,0.9,2.2,1.2,2.2,0.9h-29.3c0,0.2,0.7-0.1,2.2-0.9c1.5-0.9,2.8-2.5,4-5     c1.2-2.5,1.7-6.1,1.7-11V28.9c0-4.9-0.6-8.6-1.7-11.2c-1.2-2.6-2.5-4.3-4-5.2c-1.5-0.9-2.2-1.3-2.2-1h36.1     c6.3,0,11.4,0.4,15.5,1.2c4,0.8,7.6,2,10.7,3.6c5.5,2.8,9.8,6.9,12.7,12.2c2.9,5.3,4.4,11.1,4.4,17.2     C758.7,52.7,757,59.1,753.6,64.7z M736.4,26.8c-5.4-5.4-12.6-8.1-21.5-8.1h-14.4v55c5.3,1,10.8,1.5,16.6,1.5     c8.6,0,15.3-2.5,20.2-7.5c4.8-5,7.3-11.6,7.3-19.8C744.5,39.3,741.8,32.2,736.4,26.8z"></path>			<path class="st0" d="M786.4,17.4c-1.2-2.5-2.5-4.2-4-5.1c-1.5-0.9-2.2-1.2-2.2-0.9h29.3c0-0.2-0.7,0.1-2.2,0.9     c-1.5,0.9-2.8,2.5-4,5.1c-1.2,2.5-1.8,6.2-1.8,11.1v102.1h30.2c5.5,0,10.3-1.1,14.3-3.4c4-2.3,6.8-5.2,8.6-8.7l-3.3,19.5h-70.8     c0,0.4,0.7,0.1,2.2-0.8c1.5-0.9,2.8-2.8,4-5.5c1.2-2.8,1.7-6.8,1.7-12.1V28.5C788.1,23.6,787.6,19.9,786.4,17.4z"></path>			<path class="st0" d="M898,88.9l-11.8,29.3c-1.8,4.5-2.8,8.3-2.8,11.2c0,4,1.8,6.9,5.5,8.6h-26.3c1.2,0,3-1.2,5.3-3.7     c2.3-2.5,5-7.3,8.1-14.5l48-114.3l47.7,114.8c2.7,6.6,5.3,11.2,7.8,13.6c2.5,2.5,4.5,3.8,6,4H955c3.1-1.5,4.6-3.7,4.6-6.8     c0-2.6-1-6.3-2.9-11l-12.9-31.3H898z M940.9,81.3l-20.1-49.1l-19.7,49.1H940.9z"></path>			<path class="st0" d="M1119.9,11.4c-1.7,0.4-3.4,1.7-5.1,4.1c-1.7,2.4-2.5,6.6-2.5,12.6v115l-94.2-109.9v88.1c0,5.9,1,10,3.1,12.4     c2.1,2.4,4.1,3.8,6.1,4.1h-25.9c1.7-0.4,3.5-1.7,5.2-4.1c1.8-2.4,2.7-6.6,2.7-12.6v-92c0-4.2-1.4-8-4.2-11.4     c-2.8-3.4-6.4-5.6-10.7-6.4h22.8l86.3,100.7V28.1c0-9.4-3.2-15-9.6-16.7H1119.9z"></path>		</g>	</g></g></svg>